PathFileType	3	(X/Y/Z)	E:\ViconData\BIOM9541 2025\Week 7\Wed1100\Hanif high squat 2-5 Squat 01.trc
DataRate	CameraRate	NumFrames	NumMarkers	Units	OrigDataRate	OrigDataStartFrame	OrigNumFrames
200.0	200.0	8	19	mm	200.0	669	1337	
Frame#	Time	C7			CLAV			RBAK			LASI			RASI			LPSI			RPSI			LTHI			LKNE			LTIB			LANK			LHEE			LTOE			RTHI			RKNE			RTIB			RANK			RHEE			RTOE			
		X1	Y1	Z1	X2	Y2	Z2	X3	Y3	Z3	X4	Y4	Z4	X5	Y5	Z5	X6	Y6	Z6	X7	Y7	Z7	X8	Y8	Z8	X9	Y9	Z9	X10	Y10	Z10	X11	Y11	Z11	X12	Y12	Z12	X13	Y13	Z13	X14	Y14	Z14	X15	Y15	Z15	X16	Y16	Z16	X17	Y17	Z17	X18	Y18	Z18	X19	Y19	Z19	
669	3.34	309.58737	1243.101	-1215.7029	169.58185	1160.9496	-1205.4685	334.75034	1163.6232	-1364.0541	246.28636	797.65881	-1086.2185	235.8802	810.0359	-1344.2272	412.2604	864.9357	-1172.4631	410.6734	862.4443	-1246.3269	209.84186	539.71198	-944.32996	168.5025	404.56863	-923.29913	247.26801	206.34753	-924.13788	301.21704	64.173126	-956.9621	323.78528	50.850964	-1017.3915	162.8866	38.206818	-927.4494	275.23663	686.39246	-1427.6637	176.43994	398.27573	-1490.4232	205.07072	316.18942	-1497.8231	295.68304	72.916	-1448.9792	320.90622	50.960247	-1380.3604	162.73691	40.710442	-1479.3317	
670	3.345	309.4603	1246.9353	-1215.6134	169.42807	1164.9944	-1205.556	334.7377	1167.464	-1363.9578	245.37627	801.52734	-1086.3077	234.7391	814.2288	-1344.8707	411.2697	868.9056	-1172.2756	410.178	865.9857	-1246.9792	210.97455	540.99109	-945.51385	170.96881	405.57166	-924.974	248.48358	206.74994	-924.81635	301.33105	64.155693	-956.90723	323.88879	50.789917	-1017.2861	162.88976	38.216877	-927.45923	275.11914	688.66138	-1427.007	179.10603	399.55771	-1489.1077	207.3815	317.17368	-1496.7441	295.90622	72.950806	-1448.9812	321.10016	50.984127	-1380.4775	162.75148	40.789005	-1479.365	
671	3.35	309.35852	1250.7455	-1215.5297	169.34492	1168.8835	-1205.4904	334.72308	1171.2279	-1363.827	244.50554	805.31903	-1086.4666	234.046	817.5837	-1344.2903	410.3066	872.8077	-1172.2241	408.8278	870.1459	-1246.3683	212.09554	542.29309	-946.71185	173.44807	406.6373	-926.55145	249.70081	207.33286	-925.43005	301.55005	64.131386	-956.92139	324.02289	50.678356	-1017.1603	162.90964	38.214039	-927.46954	274.90671	691.24768	-1426.6307	181.84373	400.72098	-1487.772	209.77702	318.07809	-1495.5988	296.16238	72.952202	-1448.9883	321.26712	50.925091	-1380.621	162.79251	40.746044	-1479.3762	
672	3.355	309.24084	1254.4337	-1215.4829	169.18787	1172.8226	-1205.5769	334.76465	1174.9158	-1363.7092	243.45532	809.13513	-1086.3488	233.2221	821.1706	-1344.2377	409.3341	876.5806	-1172.2289	407.8322	874.158	-1246.1547	213.32397	544.06152	-947.57581	175.94792	407.63278	-928.16272	250.92825	207.74374	-926.06647	301.7934	64.074455	-956.8559	324.16782	50.543102	-1017.0691	162.93568	38.192944	-927.48566	274.7045	693.72668	-1426.2734	184.6067	401.82706	-1486.3834	212.22704	318.97128	-1494.5698	296.43604	72.932129	-1448.9991	321.42731	50.827343	-1380.7482	162.85493	40.686977	-1479.3645	
673	3.36	309.14731	1258.057	-1215.4244	169.09824	1176.5726	-1205.5753	334.77164	1178.5416	-1363.5833	242.39532	812.74872	-1086.2401	232.3674	824.6576	-1344.1554	408.3098	880.3771	-1172.139	406.8666	877.9132	-1246.0308	214.48508	545.88538	-948.36554	178.48485	408.65839	-929.83936	252.18251	208.19933	-926.73517	302.02039	63.997158	-956.82019	324.31085	50.425194	-1016.9945	162.95915	38.182549	-927.52954	274.48065	696.24634	-1425.884	187.32716	402.88049	-1484.9264	214.67163	319.80679	-1493.4574	296.754	72.883598	-1448.9933	321.62378	50.736423	-1380.9038	162.91608	40.678982	-1479.3929	
674	3.365	309.03152	1261.6265	-1215.3558	169.0031	1180.192	-1205.5809	334.73819	1182.0433	-1363.4092	241.45113	816.34454	-1086.3662	231.4755	828.2329	-1344.1134	407.2593	884.0984	-1171.9453	406.1631	881.0773	-1246.5598	215.63885	546.79309	-949.85797	180.95282	409.61212	-931.48218	253.39091	208.56906	-927.38971	302.15125	64.00164	-956.71979	324.47235	50.332184	-1016.9283	163.00473	38.176239	-927.59283	274.25989	698.65118	-1425.4403	190.13173	404.01343	-1483.5221	217.08502	320.6416	-1492.3265	297.06454	72.93792	-1448.9873	321.75494	50.682091	-1380.8605	162.95331	40.720844	-1479.3807	
675	3.37	308.95496	1265.0914	-1215.3494	168.86055	1183.7476	-1205.5944	334.66092	1185.528	-1363.1521	240.44583	819.87091	-1086.3088	230.5486	831.5867	-1343.9955	406.1883	887.7723	-1171.6675	405.0595	884.3765	-1246.5122	216.89502	548.61993	-950.59241	183.55986	410.48727	-933.17493	254.58867	208.98367	-927.99304	302.27234	63.967384	-956.61273	324.64923	50.323849	-1016.882	163.05261	38.141895	-927.55914	273.96118	701.09137	-1425.022	192.9043	405.15289	-1482.0492	219.47118	321.56128	-1491.0964	297.31827	73.064781	-1448.9717	321.89511	50.697041	-1380.8556	162.99451	40.812038	-1479.4031	
676	3.375	308.84949	1268.5376	-1215.2969	168.69281	1187.2842	-1205.6288	334.70966	1189.0087	-1363.1062	239.32834	823.35236	-1086.1731	229.6449	835.0146	-1343.9224	405.133	891.3503	-1171.5424	403.6524	888.3446	-1245.791	217.95917	549.46198	-952.0152	186.10905	411.42233	-934.82092	255.86247	209.36752	-928.74402	302.42209	63.957134	-956.53931	324.78522	50.233238	-1016.7854	163.0547	38.1898	-927.5849	273.65439	703.71356	-1424.8649	195.68079	406.23441	-1480.5349	221.91983	322.44263	-1489.9375	297.56055	73.141632	-1448.9324	322.06769	50.684559	-1380.921	163.04843	40.878521	-1479.3851	
